<?xml version="1.0" standalone="no"?>
<!DOCTYPE svg PUBLIC "-//W3C//DTD SVG 20010904//EN"
 "http://www.w3.org/TR/2001/REC-SVG-20010904/DTD/svg10.dtd">
<svg version="1.0" xmlns="http://www.w3.org/2000/svg"
 width="1024.000000pt" height="1024.000000pt" viewBox="0 0 1024.000000 1024.000000"
 preserveAspectRatio="xMidYMid meet">

<g transform="translate(0.000000,1024.000000) scale(0.100000,-0.100000)"
fill="#000000" stroke="none">
<path d="M5003 8099 c-102 -17 -129 -31 -648 -346 -99 -60 -223 -136 -275
-170 -52 -33 -135 -84 -185 -113 -49 -29 -148 -90 -220 -135 -71 -45 -186
-115 -255 -155 -217 -127 -272 -180 -340 -322 -74 -156 -71 -94 -68 -1174 l3
-969 26 -67 c63 -162 138 -244 329 -359 230 -140 444 -266 575 -339 110 -62
501 -292 800 -470 105 -63 139 -76 243 -96 150 -28 312 -5 452 66 31 16 105
57 165 92 61 36 232 136 380 222 149 87 275 162 280 166 6 4 37 22 70 40 33
18 197 114 364 214 359 214 408 254 470 387 22 46 45 111 51 144 17 81 16
1942 -1 2013 -19 82 -87 207 -143 266 -43 44 -181 146 -199 146 -8 0 -395 233
-487 292 -47 31 -123 77 -170 103 -47 27 -161 97 -255 155 -404 255 -571 355
-628 378 -95 38 -221 50 -334 31z m230 -196 c48 -15 166 -83 422 -243 77 -48
163 -100 190 -115 95 -52 95 -52 7 -103 -42 -25 -198 -119 -347 -208 -303
-181 -345 -204 -375 -204 -31 0 -89 31 -380 200 -464 271 -455 265 -430 281
127 80 517 313 587 350 129 70 205 80 326 42z m-984 -610 c47 -25 145 -80 216
-121 72 -41 204 -118 295 -169 90 -52 167 -97 170 -100 3 -3 0 -8 -7 -10 -6
-2 -40 -22 -75 -43 -314 -195 -732 -440 -751 -440 -29 0 -348 177 -575 319
-48 30 -112 68 -142 83 -30 16 -59 33 -65 39 -17 17 87 101 236 190 79 48 185
112 235 142 51 31 135 79 188 107 128 67 158 67 275 3z m1927 27 c78 -20 684
-395 733 -454 16 -19 20 -15 -51 -54 -62 -33 -228 -130 -437 -255 -143 -85
-246 -137 -271 -137 -25 0 -127 52 -253 129 -65 40 -164 97 -220 128 -129 70
-347 213 -347 228 0 11 38 35 200 126 52 29 149 85 215 124 158 94 289 165
323 175 27 8 46 6 108 -10z m-987 -589 c27 -10 104 -51 172 -91 372 -219 557
-331 568 -344 15 -17 26 -10 -264 -183 -110 -66 -248 -150 -308 -186 -141 -86
-193 -103 -261 -88 -29 6 -94 35 -146 64 -137 77 -568 326 -614 355 l-40 25
27 23 c15 13 60 42 100 65 39 23 133 78 207 124 228 138 374 223 410 239 47
20 90 20 149 -3z m-1575 -282 c340 -194 366 -210 386 -234 12 -14 15 -92 17
-451 3 -326 0 -434 -8 -434 -20 0 -725 415 -782 460 l-27 22 2 421 c2 232 6
427 11 434 5 8 21 3 55 -18 26 -17 182 -107 346 -200z m3413 174 c4 -21 7
-215 8 -432 l0 -395 -60 -41 c-33 -22 -114 -72 -180 -112 -470 -277 -533 -313
-555 -313 -12 0 -14 538 -2 556 4 7 16 14 27 17 15 4 14 5 -7 6 l-28 1 0 148
c0 129 2 151 18 164 9 9 71 47 137 85 66 38 183 105 260 150 182 105 358 202
367 203 4 0 11 -17 15 -37z m-2697 -581 c365 -202 659 -385 682 -425 18 -30
25 -887 8 -887 -6 0 -48 22 -93 49 -45 27 -181 108 -302 179 -121 72 -263 157
-315 189 l-95 58 -3 448 c-1 246 1 447 5 447 5 0 55 -26 113 -58z m1710 -393
l0 -440 -42 -25 c-61 -37 -388 -238 -483 -297 -87 -54 -284 -167 -291 -167 -2
0 -4 133 -4 295 0 174 4 295 9 295 5 0 11 -8 13 -17 3 -15 5 -14 10 5 5 19 2
22 -19 22 l-26 0 5 133 c6 158 9 165 105 226 184 117 383 236 489 294 66 35
142 78 169 94 28 17 53 28 58 26 4 -2 7 -202 7 -444z m-2735 -137 c49 -33 124
-78 165 -102 41 -23 174 -99 295 -168 121 -69 228 -132 238 -140 16 -15 17
-44 13 -481 -3 -315 -8 -467 -15 -469 -12 -4 -28 4 -246 133 -388 228 -449
272 -501 364 -48 85 -54 144 -54 549 0 204 3 372 7 372 4 0 48 -26 98 -58z
m3723 -492 l-3 -276 -32 -65 c-43 -87 -69 -120 -91 -113 -13 5 -14 4 -3 -4 10
-7 6 -15 -20 -34 -78 -58 -610 -368 -632 -368 -4 0 -7 5 -7 10 0 6 8 10 18 10
49 0 67 42 53 129 -5 30 -5 67 0 83 4 15 4 28 0 28 -5 0 -8 24 -7 53 1 28 -2
62 -6 75 -4 12 -4 22 1 22 4 0 5 21 1 48 -12 75 -6 357 7 374 7 8 47 32 90 53
43 21 106 56 141 77 34 21 66 38 70 38 9 0 169 95 232 138 25 17 57 33 71 37
14 3 38 17 54 31 15 13 34 24 42 24 7 0 14 6 15 13 6 39 9 -144 6 -383z
m-2709 -106 c109 -59 483 -278 536 -314 22 -15 61 -39 88 -54 81 -46 77 -19
78 -502 1 -236 1 -437 0 -446 -1 -24 -44 -23 -100 2 -39 18 -342 196 -549 324
-127 78 -143 93 -148 146 -4 41 -3 43 8 20 12 -24 29 -42 35 -36 2 2 -4 41
-12 87 -8 46 -15 100 -15 118 0 58 -19 22 -23 -44 -2 -33 -4 121 -5 343 -2
301 1 402 10 402 6 0 50 -21 97 -46z m1719 -532 l-3 -344 -27 -23 c-69 -60
-683 -415 -717 -415 -4 0 -4 22 0 50 4 27 5 64 3 82 -3 18 -6 84 -7 146 -1 61
-4 112 -7 112 -3 0 -4 50 -4 110 1 61 -2 112 -5 115 -11 6 -4 106 10 154 13
43 26 56 119 107 39 21 53 31 81 57 10 9 19 14 19 11 0 -4 6 -2 13 4 6 6 15
11 19 11 22 4 37 14 32 22 -3 5 2 9 11 9 9 0 24 8 35 18 10 9 67 42 127 72 94
47 156 83 173 100 3 3 12 6 20 8 29 6 90 53 91 70 1 9 6 -17 11 -58 5 -41 8
-230 6 -418z m-228 453 c0 -2 -13 -11 -30 -20 -38 -19 -40 -11 -2 9 31 17 32
18 32 11z m-125 -75 c-3 -5 -12 -10 -18 -10 -7 0 -6 4 3 10 19 12 23 12 15 0z
m-458 -753 c-1 -73 -3 -10 -3 138 0 149 2 208 3 132 2 -76 2 -198 0 -270z m10
-409 c-3 -8 -6 -5 -6 6 -1 11 2 17 5 13 3 -3 4 -12 1 -19z"/>
<path d="M6568 7984 c-15 -8 -39 -34 -53 -58 -33 -56 -27 -102 20 -152 27 -28
40 -34 73 -34 65 0 132 69 132 137 0 41 -35 92 -75 109 -43 17 -63 17 -97 -2z"/>
<path d="M3216 7819 c-75 -59 -73 -148 4 -213 47 -39 99 -36 144 9 64 64 64
134 1 193 -43 40 -106 45 -149 11z"/>
<path d="M8061 7600 c0 -8 4 -24 9 -35 5 -13 9 -14 9 -5 0 8 -4 24 -9 35 -5
13 -9 14 -9 5z"/>
<path d="M8094 7477 c22 -91 25 -294 26 -1759 0 -1700 1 -1679 -50 -1911 -46
-212 -186 -443 -382 -633 -69 -67 -291 -226 -361 -258 -106 -49 -267 -99 -392
-123 l-140 -26 -1524 -4 c-1591 -4 -1856 1 -2031 36 -263 53 -509 193 -738
422 -57 57 -100 95 -96 86 3 -9 10 -17 15 -17 5 0 9 -7 9 -14 0 -8 11 -27 25
-42 14 -15 25 -30 26 -33 0 -3 2 -14 4 -23 2 -10 -1 -20 -5 -23 -5 -3 -7 -12
-4 -19 3 -8 -4 -16 -16 -19 -12 -3 -19 -10 -16 -15 3 -5 0 -15 -8 -21 -11 -9
-18 -6 -35 16 l-22 28 18 -34 c22 -41 26 -48 85 -137 26 -39 96 -120 155 -180
60 -60 119 -125 133 -143 14 -18 43 -42 64 -53 39 -20 125 -98 109 -98 -4 -1
7 -7 25 -15 17 -8 32 -19 32 -26 0 -6 6 -9 14 -6 8 3 13 -1 12 -11 -1 -11 5
-16 18 -14 13 3 17 -1 13 -12 -4 -11 -1 -13 10 -9 10 4 14 2 10 -4 -4 -7 4
-14 22 -18 22 -5 28 -10 24 -26 -4 -14 -1 -18 10 -14 8 4 17 -1 21 -12 6 -15
8 -15 17 -3 7 12 10 11 15 -7 4 -13 13 -23 20 -23 8 0 14 -4 14 -10 0 -5 8
-10 18 -10 10 0 26 -6 37 -14 11 -7 28 -12 37 -11 11 2 15 -2 11 -13 -5 -12
-2 -14 11 -9 9 4 15 3 11 -2 -3 -5 9 -21 27 -36 20 -17 34 -23 36 -16 5 16 32
-6 32 -25 0 -13 39 -20 79 -15 7 2 10 -3 6 -9 -4 -6 -16 -8 -28 -5 -12 2 -16
2 -9 -1 6 -3 9 -11 6 -16 -4 -7 -2 -8 4 -4 6 4 21 2 33 -5 13 -6 19 -7 15 -1
-3 6 -2 14 4 17 6 4 10 3 9 -2 -1 -4 -1 -16 0 -26 1 -15 4 -16 23 -6 18 10 20
9 14 -6 -5 -14 -2 -16 18 -11 14 3 28 1 31 -4 4 -6 11 -7 17 -4 6 4 8 -2 4
-17 -3 -13 -3 -18 0 -11 3 6 11 9 17 5 6 -4 33 -8 60 -10 54 -4 125 -34 95
-41 -10 -2 -18 -7 -18 -12 0 -5 6 -7 13 -4 7 2 21 -2 32 -10 17 -12 22 -12 45
3 25 16 25 16 -4 -24 -26 -35 -27 -38 -5 -19 28 25 54 35 64 26 4 -4 12 -7 18
-7 7 0 11 -8 9 -18 -2 -13 4 -17 28 -17 17 0 29 4 25 9 -3 5 -1 12 5 16 5 3
10 -1 10 -10 0 -9 5 -13 10 -10 6 3 10 -1 10 -10 0 -12 6 -15 23 -10 18 5 19
4 7 -5 -12 -9 -8 -11 20 -7 19 3 29 3 23 0 -7 -2 -13 -14 -12 -26 0 -15 2 -17
6 -7 4 8 12 21 20 28 11 11 13 11 13 0 0 -8 3 -9 8 -3 4 6 18 12 31 13 18 3
22 0 18 -12 -5 -13 2 -16 37 -16 48 0 74 -18 53 -39 -9 -10 -8 -11 6 -6 9 4
17 3 17 -3 0 -5 7 -12 15 -16 13 -4 14 -2 5 14 -9 17 -8 19 7 17 10 -2 27 -8
39 -15 14 -7 24 -8 31 -1 13 13 43 0 43 -20 0 -9 5 -23 10 -31 8 -11 9 -7 4
15 -4 22 -3 26 4 16 8 -11 14 -12 25 -3 11 9 14 9 14 -3 0 -8 -3 -12 -7 -10
-4 2 -7 -2 -7 -10 0 -13 2 -13 16 -1 9 8 28 18 44 21 23 6 27 4 27 -14 0 -12
3 -21 8 -22 4 0 18 -2 32 -3 14 -2 35 0 47 5 31 12 81 0 86 -20 4 -13 5 -13 6
3 1 12 6 16 17 12 9 -3 19 -6 24 -6 5 0 11 -8 13 -17 4 -14 5 -13 6 4 0 12 6
25 12 29 9 5 10 -2 6 -22 -3 -16 -4 -23 -1 -16 3 6 15 12 26 12 18 0 18 -1 4
-16 -21 -20 -20 -25 2 -17 14 6 15 4 5 -8 -9 -11 -7 -14 12 -14 18 0 21 3 14
17 -12 22 -11 28 2 28 5 0 8 -4 5 -8 -6 -9 29 -52 42 -52 4 0 14 4 22 9 18 12
36 2 19 -11 -10 -6 -6 -7 10 -3 20 6 23 4 17 -11 -6 -18 -5 -18 8 -1 9 12 16
14 21 7 3 -5 11 -7 17 -4 6 4 8 2 4 -4 -3 -6 -2 -13 4 -17 5 -3 10 -1 10 5 0
6 5 8 10 5 6 -3 10 -1 10 4 0 6 9 11 19 11 11 0 22 6 25 13 3 6 4 3 1 -9 -7
-29 19 -51 40 -34 12 10 15 10 15 -4 0 -9 8 -16 20 -16 11 0 23 -7 26 -15 4
-8 12 -15 20 -15 8 0 14 -10 14 -21 0 -18 -2 -19 -15 -9 -13 11 -14 10 -9 -4
5 -12 -4 -29 -27 -54 -33 -35 -32 -35 12 5 59 52 103 66 193 61 61 -3 80 -8
116 -33 64 -44 93 -95 98 -168 6 -87 19 -93 19 -8 0 38 -4 68 -9 65 -4 -3 -5
2 -2 10 3 9 1 16 -5 16 -6 0 -11 6 -11 14 0 8 -6 17 -12 20 -9 4 -8 5 2 5 8
-1 24 0 35 1 17 2 17 3 -5 10 -24 8 -24 8 -3 9 31 1 52 -38 29 -54 -8 -7 -13
-15 -9 -18 9 -10 35 31 28 43 -3 6 -1 10 4 10 6 0 11 -5 11 -12 0 -6 3 -8 7
-5 3 4 12 -1 20 -11 13 -15 13 -15 3 6 -6 12 -15 22 -20 22 -6 0 -10 10 -10
23 0 18 2 19 10 7 5 -8 10 -10 10 -4 0 6 20 11 46 12 26 0 49 4 53 9 3 5 14
12 23 16 20 7 31 -16 15 -32 -22 -22 4 -11 29 13 23 20 24 24 9 30 -9 3 -21 4
-26 0 -5 -3 -9 6 -9 20 0 19 5 26 20 26 13 0 20 -7 20 -20 0 -11 5 -20 10 -20
19 0 10 -22 -25 -63 -67 -78 -81 -183 -36 -271 20 -38 17 -48 -5 -19 -7 10
-14 13 -14 7 0 -6 11 -20 25 -32 14 -12 25 -17 25 -11 0 6 12 1 26 -10 46 -36
42 -23 -7 28 -58 60 -75 121 -58 204 9 43 20 61 63 102 95 94 223 102 330 20
24 -18 47 -32 50 -29 3 2 4 1 1 -3 -7 -8 15 -33 29 -33 6 0 6 4 -2 9 -10 6 -6
10 15 16 28 7 28 7 5 16 -14 5 -22 16 -20 26 4 24 28 29 28 6 0 -11 7 -20 15
-20 8 0 15 4 15 8 0 10 60 17 66 7 7 -11 24 0 24 15 0 8 -3 8 -9 -1 -6 -10
-10 -10 -21 3 -7 8 -9 16 -4 16 20 4 40 6 63 8 19 1 21 4 11 16 -6 8 -8 20 -4
26 5 9 11 7 21 -6 10 -15 16 -16 25 -7 9 9 8 12 -5 12 -19 0 -24 20 -4 21 6 0
20 2 30 4 9 2 15 -1 11 -6 -3 -5 -10 -6 -16 -3 -7 4 -8 2 -4 -5 4 -6 11 -9 16
-6 4 3 11 -1 13 -7 5 -12 11 33 8 58 -1 6 7 18 16 25 16 12 17 12 6 -1 -7 -9
-9 -28 -5 -47 6 -26 10 -30 22 -23 12 8 12 10 1 10 -8 0 -12 2 -9 5 3 3 12 3
21 -1 15 -5 14 -8 -6 -25 -12 -10 -17 -18 -11 -19 5 0 15 5 20 10 6 6 27 11
47 12 23 1 34 5 30 12 -4 6 0 5 9 -2 14 -11 17 -8 26 18 6 16 14 30 17 30 3 0
3 -5 0 -10 -3 -6 -3 -20 1 -33 l8 -22 7 25 c7 24 7 24 8 3 1 -27 32 -31 51 -8
14 17 46 20 55 5 4 -6 10 -8 13 -6 4 2 18 -2 32 -10 23 -14 23 -14 3 -9 -15 4
-23 2 -23 -7 0 -7 -7 -2 -16 10 -16 24 -61 27 -57 5 2 -7 -16 -17 -40 -22 -39
-10 -40 -10 -6 -7 20 3 41 0 46 -5 6 -6 15 -3 24 8 13 16 12 17 -3 4 -11 -8
-18 -9 -18 -3 0 19 21 24 42 10 26 -18 108 -5 121 19 7 11 12 11 22 3 9 -7 28
-9 52 -5 53 10 94 10 118 1 13 -5 16 -5 7 1 -10 8 -10 12 2 22 11 10 19 7 41
-14 23 -21 25 -25 10 -25 -10 0 -16 -3 -12 -6 3 -3 15 -3 27 1 l21 7 -22 19
c-12 10 -20 22 -17 25 9 8 48 -28 48 -44 0 -10 3 -10 14 0 13 11 13 14 0 24
-17 13 -18 33 -3 54 9 13 10 12 5 -2 -3 -10 -1 -20 5 -23 10 -7 41 20 32 28
-3 3 7 2 23 -2 36 -9 44 -30 9 -24 -15 3 -25 1 -25 -6 0 -7 -4 -10 -9 -6 -5 3
-12 1 -16 -5 -3 -5 1 -10 10 -10 10 0 15 -6 12 -13 -3 -7 5 -13 20 -13 22 -2
23 -1 6 12 -16 12 -16 15 -3 24 11 7 18 5 28 -7 7 -10 12 -12 12 -4 0 7 5 9
12 5 6 -4 8 -3 5 3 -4 6 0 13 8 16 8 4 12 15 10 27 -2 11 0 20 6 20 5 0 9 -10
9 -23 0 -20 4 -23 30 -19 17 2 30 10 30 19 0 8 5 11 10 8 6 -3 10 -15 10 -26
0 -17 3 -18 21 -9 11 7 27 9 35 6 8 -3 24 4 35 15 16 16 23 18 35 8 11 -9 14
-7 14 10 0 13 4 19 10 16 6 -4 8 -11 5 -16 -4 -5 3 -5 16 0 13 4 25 14 27 22
3 11 2 11 -6 1 -7 -10 -11 -10 -21 1 -10 12 -7 14 18 13 16 0 27 -4 25 -8 -6
-9 33 -21 46 -13 5 3 10 12 10 18 0 7 -4 6 -10 -3 -6 -9 -10 -10 -10 -3 0 6 3
14 8 16 11 6 53 -19 45 -27 -4 -3 -8 -14 -9 -22 -1 -9 1 -13 4 -9 4 4 7 12 7
18 1 7 6 11 13 10 7 -2 12 2 12 7 0 6 -4 10 -10 10 -5 0 -6 8 -3 17 4 11 8 12
11 5 2 -7 8 -12 13 -12 6 0 7 5 3 11 -4 7 8 10 37 9 24 -1 49 -1 54 0 6 1 14
2 18 1 4 -1 3 8 -3 20 -7 12 -18 18 -26 15 -9 -3 -12 -1 -9 4 9 14 21 12 39
-5 16 -17 59 -25 64 -12 7 22 0 28 -13 11 -10 -13 -13 -14 -10 -3 8 22 56 55
80 54 16 0 21 -8 23 -39 3 -38 4 -39 16 -15 11 21 10 28 -7 53 -19 27 -19 28
-1 18 24 -12 60 8 43 25 -9 9 5 10 54 4 5 -1 5 -5 2 -11 -3 -5 -1 -10 4 -10 6
0 11 5 11 12 0 6 7 3 15 -8 13 -18 14 -18 8 4 -5 21 -3 23 23 20 21 -2 28 -8
26 -20 -2 -10 2 -18 8 -18 14 0 13 67 -2 72 -9 3 -8 9 4 21 12 12 19 14 24 6
5 -9 10 -8 18 3 6 9 20 17 31 20 11 2 19 11 19 21 -2 19 5 21 26 7 13 -9 12
-12 -4 -25 -19 -15 -19 -15 2 -15 17 0 22 6 23 28 l1 27 9 -25 c8 -24 8 -24 6
5 -2 40 9 55 41 55 21 0 24 2 12 10 -11 7 -11 10 -2 10 7 0 10 5 7 10 -3 6 3
10 15 10 12 0 18 -4 15 -10 -3 -5 -1 -10 5 -10 8 0 10 17 7 55 -5 56 0 64 21
43 10 -10 15 -10 22 2 6 8 8 20 5 27 -2 7 0 15 5 18 6 4 10 0 10 -7 0 -9 3 -9
10 2 9 13 10 13 10 0 1 -13 2 -13 13 1 7 9 18 14 25 12 6 -3 12 0 12 5 0 5 -9
12 -20 15 -12 3 -20 14 -20 26 0 14 5 19 14 15 11 -4 13 0 9 15 -3 12 -1 21 6
21 5 0 8 -6 6 -13 -4 -8 5 -12 27 -12 19 0 33 5 33 12 0 6 3 15 8 19 4 4 7 12
7 17 0 6 -8 2 -19 -9 -12 -13 -15 -21 -7 -26 8 -6 8 -8 0 -8 -6 0 -18 8 -25
17 -8 9 -9 14 -3 10 12 -7 57 66 47 77 -3 3 6 6 20 6 20 0 27 -5 27 -20 0 -11
5 -20 10 -20 6 0 10 9 10 20 0 11 5 20 10 20 6 0 10 5 10 12 0 9 -3 9 -12 0
-15 -15 -31 -16 -22 0 4 6 -1 17 -11 25 -23 16 -12 17 17 2 12 -7 18 -7 14 -1
-3 6 0 13 6 15 7 3 1 6 -14 6 -15 1 -30 6 -34 12 -4 8 0 9 15 4 15 -5 21 -2
21 9 0 18 16 21 25 6 4 -6 11 -8 16 -4 7 4 7 10 0 18 -12 14 -4 28 24 45 l20
11 -20 -2 c-11 -2 -24 -10 -30 -19 -9 -14 -13 -14 -35 7 -13 13 -19 24 -12 24
6 0 12 -5 12 -11 0 -5 4 -8 9 -5 5 4 12 0 14 -6 3 -8 6 -6 6 5 1 9 -3 17 -8
17 -5 0 -14 14 -20 31 -13 39 -14 42 -1 34 6 -3 10 -1 10 4 0 6 -6 11 -12 11
-8 0 -5 7 6 15 11 8 25 15 30 15 6 0 3 -5 -6 -11 -17 -10 -14 -39 4 -39 6 0 4
8 -3 17 -12 15 -12 16 3 11 23 -9 16 23 -8 34 -12 5 -7 6 15 2 23 -4 31 -3 27
5 -4 6 -14 11 -22 11 -8 0 -14 4 -14 9 0 6 12 6 31 -1 16 -6 33 -8 36 -4 4 3
-2 6 -11 6 -14 0 -16 6 -11 30 6 29 -8 44 -18 18 -2 -7 -8 -10 -12 -6 -4 4 2
17 14 29 23 25 26 35 11 44 -5 3 -10 11 -10 18 0 6 7 2 15 -10 8 -12 13 -30
10 -40 -6 -17 -5 -17 7 1 7 10 21 26 30 34 15 14 15 16 -4 32 l-21 17 21 21
c11 11 18 23 14 26 -3 3 5 6 17 6 21 0 19 3 -13 34 -35 33 -36 34 -22 67 9 22
15 27 17 17 3 -14 7 -15 22 -4 16 13 16 14 0 27 -14 12 -16 12 -8 0 5 -10 4
-12 -3 -7 -20 12 -13 29 8 23 11 -3 18 -1 15 3 -3 5 3 13 12 19 17 9 17 10 1
16 -24 9 -13 25 18 25 16 0 24 6 24 18 -1 23 -31 61 -37 45 -3 -8 -13 -9 -33
-3 -16 4 -31 6 -34 2 -3 -3 -6 0 -6 7 0 8 7 10 19 6 11 -3 31 -3 45 1 25 6 25
7 9 19 -13 10 -20 10 -26 2 -5 -8 -7 -4 -4 8 2 11 -3 33 -11 49 -10 20 -11 31
-3 39 6 6 11 26 11 44 0 22 5 33 14 33 8 0 16 7 20 15 4 11 -2 15 -24 15 -31
0 -47 14 -29 26 8 4 9 3 5 -4 -5 -8 4 -12 27 -12 29 0 35 4 35 23 0 12 3 34 5
50 3 17 1 25 -5 21 -6 -4 -14 -1 -18 7 -7 10 -12 10 -23 1 -11 -9 -14 -9 -14
3 0 8 4 12 8 9 4 -2 15 6 24 18 l17 23 -7 -22 c-4 -15 -2 -23 6 -23 7 0 10 10
6 29 -3 16 -1 33 6 40 9 10 8 11 -4 6 -9 -3 -22 -16 -28 -28 l-11 -22 5 22
c13 51 12 62 -6 82 -10 11 -19 27 -19 35 0 8 -6 17 -12 20 -7 3 -4 4 7 1 11
-2 27 0 35 5 13 9 13 11 0 20 -10 6 -11 10 -2 10 6 0 12 9 12 19 0 11 3 21 8
24 4 2 1 2 -5 1 -7 -2 -13 1 -13 6 0 6 9 10 20 10 11 0 20 4 20 10 0 5 -7 6
-17 3 -11 -4 -14 -3 -9 5 11 19 -5 14 -21 -5 -7 -10 -13 -13 -12 -8 1 6 0 12
-1 15 -1 3 -3 13 -5 22 -3 14 0 16 15 8 31 -17 32 -11 3 14 l-28 25 32 11 c26
9 30 14 20 25 -7 7 -15 11 -20 8 -11 -7 -29 48 -21 66 4 9 6 24 5 35 -2 10 3
23 11 27 9 6 4 9 -16 9 -36 0 -27 11 22 27 23 8 27 11 10 8 -23 -4 -28 -2 -28
14 0 11 5 23 10 26 6 3 10 1 10 -6 0 -7 3 -9 6 -6 4 4 1 14 -7 23 -13 16 -12
17 9 12 12 -4 20 -2 16 3 -3 5 -12 9 -20 9 -9 0 -12 5 -8 12 12 19 15 106 4
113 -6 3 -10 15 -10 26 0 11 4 18 9 15 4 -3 17 4 27 17 l19 22 -22 -18 c-20
-18 -22 -18 -32 0 -10 17 -10 17 -11 1 0 -10 -5 -18 -10 -18 -7 0 -7 6 -1 19
6 10 7 21 3 25 -3 4 2 4 13 0 18 -7 19 -6 5 11 -8 10 -10 16 -3 12 6 -4 14 -3
18 3 4 6 -5 10 -20 10 -16 0 -24 4 -20 11 4 6 14 8 22 5 8 -3 12 -2 8 3 -3 5
-1 11 4 13 5 1 3 9 -4 15 -9 8 -16 9 -20 3 -3 -6 0 -10 7 -10 10 0 10 -2 -1
-9 -8 -5 -20 -7 -27 -4 -8 3 1 17 24 38 36 33 36 33 9 28 -20 -4 -27 -1 -27
11 0 9 7 16 16 16 21 0 77 57 64 65 -6 3 -10 1 -10 -4 0 -20 -18 -11 -23 11
-7 27 1 38 13 18 5 -8 12 -11 16 -8 3 4 0 14 -9 22 -8 8 -17 13 -19 11 -2 -3
-4 16 -4 42 1 42 -2 48 -24 54 -17 5 -19 7 -7 8 10 1 15 6 12 11 -3 6 1 10 10
10 11 0 15 -5 11 -15 -4 -10 1 -15 15 -15 13 0 18 -4 13 -12 -4 -7 -3 -8 4 -4
9 5 7 14 -4 31 -9 13 -12 30 -8 36 5 9 2 10 -9 6 -17 -6 -23 15 -18 65 1 9 -3
19 -9 23 -8 5 -8 11 1 21 9 11 8 14 -4 14 -9 0 -17 -8 -20 -17 -2 -10 -4 1 -3
25 1 41 7 48 44 43 13 -2 17 15 4 21 -5 2 -12 21 -15 43 -4 23 -3 34 2 26 7
-11 9 -11 14 0 4 11 6 11 6 1 1 -7 6 -10 11 -7 18 11 10 22 -20 29 -28 5 -43
26 -19 26 8 0 7 5 -1 15 -9 11 -10 19 -3 26 8 8 11 6 10 -7 -2 -14 6 -20 26
-22 21 -3 27 1 27 17 0 11 -9 22 -20 26 -22 7 -28 25 -8 25 6 0 8 3 5 7 -4 3
-2 12 4 19 13 16 3 34 -19 34 -15 1 -15 2 2 15 19 14 12 21 -16 16 -12 -2 -10
17 2 24 6 3 7 17 4 30 -3 12 -1 26 5 29 7 5 2 20 -14 44 -23 33 -23 37 -8 54
19 22 10 36 -12 18 -10 -8 -15 -9 -15 -1 0 6 -5 11 -11 11 -5 0 -7 -5 -3 -12
4 -7 3 -8 -5 -4 -17 11 -2 28 20 21 22 -7 26 10 4 19 -23 8 -6 36 22 36 13 0
22 4 19 8 -8 14 -44 7 -66 -13 -11 -10 -20 -13 -20 -8 0 6 7 14 16 17 13 5 15
15 11 41 -7 43 0 45 14 5 12 -33 24 -38 33 -14 3 9 11 12 18 8 9 -4 8 -2 -1 7
-10 11 -15 11 -18 2 -3 -7 -9 -13 -14 -13 -6 0 -7 5 -4 10 4 6 -1 24 -9 42
-18 35 -14 52 4 18 9 -17 14 -19 26 -9 17 14 18 39 2 40 -7 0 -4 4 7 9 17 7
17 9 3 9 -10 1 -18 6 -18 11 0 6 -6 9 -12 8 -7 -2 -13 4 -13 12 0 18 -28 41
-54 43 -11 1 -17 5 -14 10 3 5 23 5 45 2 29 -5 39 -4 34 4 -4 6 -21 11 -37 11
-18 0 -28 4 -24 10 3 6 15 10 26 10 22 0 26 15 5 23 -8 3 -17 1 -20 -6 -2 -7
-5 -4 -5 6 -1 9 -7 17 -13 17 -7 1 3 10 22 21 19 11 25 17 13 14 -17 -5 -20
-2 -16 13 2 11 0 22 -5 26 -11 7 -4 54 10 62 5 3 4 12 -4 21 -6 8 -14 24 -15
36 -4 21 -4 21 17 -1 23 -25 35 -27 46 -10 4 7 3 8 -5 4 -7 -5 -20 2 -32 16
-11 12 -32 36 -45 51 l-25 28 -20 -23 -20 -23 17 27 c13 22 22 27 43 23 l26
-5 -25 10 c-22 10 -23 12 -8 21 12 7 25 6 40 -2 21 -11 22 -11 9 4 -7 10 -20
17 -27 17 -8 0 -14 6 -14 14 0 14 -29 30 -38 21 -3 -3 0 -5 6 -5 6 0 9 -8 6
-17 -5 -15 -4 -16 5 -3 7 9 11 10 11 3 0 -13 -19 -28 -26 -20 -3 3 -7 27 -9
53 -2 37 -7 49 -19 48 -9 -1 -13 2 -10 7 3 5 12 9 20 9 11 0 12 4 5 18 -7 13
-7 22 1 30 8 8 4 9 -13 5 -20 -6 -21 -5 -8 9 7 9 16 14 19 13 3 -2 12 0 19 4
9 6 4 9 -13 9 -14 0 -26 -4 -26 -9 0 -5 -4 -9 -10 -9 -5 0 -9 6 -7 12 1 7 -8
14 -20 16 -27 4 -30 19 -5 25 9 2 5 4 -9 3 -24 -2 -26 0 -19 31 5 21 4 34 -4
38 -8 3 -7 7 2 11 6 3 12 11 12 17 0 8 -4 7 -12 -1 -20 -20 -38 -14 -38 15 0
29 -14 22 -24 -12 -3 -12 -4 -9 -2 8 2 15 -1 30 -6 33 -4 3 -5 10 -2 16 4 7 2
8 -5 4 -11 -7 -71 44 -71 60 0 4 -8 13 -17 20 -17 13 -17 14 0 8 21 -8 22 0 1
31 -9 13 -12 30 -8 36 5 8 3 9 -5 5 -7 -5 -10 -15 -7 -23 3 -8 1 -11 -5 -8 -5
4 -7 15 -4 26 7 21 -5 25 -23 7 -8 -8 -12 -8 -12 -1 0 6 10 18 23 26 l22 16
-22 -6 c-13 -3 -29 1 -38 11 -14 14 -13 19 5 18 3 0 6 8 6 18 0 14 -4 16 -17
9 -27 -14 -39 -11 -39 10 0 11 -10 22 -22 26 -15 4 -18 8 -10 12 9 3 4 14 -18
34 -16 16 -30 32 -30 37 0 4 -9 7 -20 7 -10 0 -22 4 -26 8 -4 4 1 7 10 7 15 0
15 3 -5 19 -22 18 -25 18 -31 3 -5 -12 -7 -10 -7 10 -1 14 -7 29 -13 31 -10 4
-9 8 2 16 12 9 11 11 -7 11 -13 0 -22 5 -20 12 1 7 -8 17 -20 22 -12 6 -25 22
-29 36 -3 14 -9 19 -11 13 -7 -20 -45 5 -39 25 3 9 1 24 -5 32 -9 13 -10 12
-5 -2 3 -12 1 -15 -10 -11 -8 3 -13 12 -10 19 3 7 -4 20 -15 28 -13 9 -16 15
-8 18 8 3 7 8 -4 20 -9 8 -14 18 -12 22 3 3 2 4 -1 1 -11 -7 -45 15 -39 25 7
11 -19 53 -27 45 -3 -3 -11 8 -18 24 -7 17 -19 36 -28 43 -13 11 -14 10 -8
-15z m693 -863 c-3 -3 -12 -4 -19 -1 -8 3 -5 6 6 6 11 1 17 -2 13 -5z m73 -78
c0 -2 -6 -9 -13 -15 -10 -8 -14 -7 -14 4 0 8 6 15 14 15 7 0 13 -2 13 -4z m53
-116 c-4 -17 -8 -18 -20 -8 -13 10 -13 13 4 19 10 4 19 8 20 8 0 1 -1 -8 -4
-19z m107 -303 c0 -8 -6 -14 -14 -14 -8 0 -12 6 -9 14 3 7 9 13 14 13 5 0 9
-6 9 -13z m25 -57 c3 -6 -1 -7 -9 -4 -18 7 -21 14 -7 14 6 0 13 -4 16 -10z
m-15 -90 c0 -5 -4 -10 -10 -10 -5 0 -10 5 -10 10 0 6 5 10 10 10 6 0 10 -4 10
-10z m65 -217 l20 -16 -20 7 c-18 6 -18 5 2 -11 15 -12 20 -22 14 -32 -7 -11
-10 -9 -16 8 -4 15 -15 21 -35 21 -16 0 -32 5 -35 10 -4 6 -11 7 -17 4 -6 -4
-8 -3 -5 3 3 5 20 8 38 5 22 -3 30 -1 25 7 -10 16 6 13 29 -6z m25 -332 c0 -6
-4 -13 -10 -16 -5 -3 -10 1 -10 9 0 9 5 16 10 16 6 0 10 -4 10 -9z m20 -151
c0 -5 -4 -10 -10 -10 -5 0 -10 5 -10 10 0 6 5 10 10 10 6 0 10 -4 10 -10z
m-30 -370 c0 -5 -4 -10 -10 -10 -5 0 -10 5 -10 10 0 6 5 10 10 10 6 0 10 -4
10 -10z m0 -40 c0 -11 -4 -20 -10 -20 -5 0 -10 9 -10 20 0 11 5 20 10 20 6 0
10 -9 10 -20z m0 -36 c0 -2 -9 -4 -21 -4 -11 0 -18 4 -14 10 5 8 35 3 35 -6z
m-33 -126 c-3 -8 -6 -5 -6 6 -1 11 2 17 5 13 3 -3 4 -12 1 -19z m24 -65 c-13
-11 -12 -13 7 -13 23 0 30 -14 12 -25 -5 -3 -10 -1 -10 5 0 7 -6 10 -14 7 -22
-9 -25 2 -10 31 8 15 15 41 15 57 2 26 3 24 8 -10 5 -29 3 -43 -8 -52z m-43
-38 c-3 -3 -9 2 -12 12 -6 14 -5 15 5 6 7 -7 10 -15 7 -18z m22 -75 c0 -5 -5
-10 -11 -10 -5 0 -7 5 -4 10 3 6 8 10 11 10 2 0 4 -4 4 -10z m30 -210 c0 -5
-4 -10 -10 -10 -5 0 -10 5 -10 10 0 6 5 10 10 10 6 0 10 -4 10 -10z m-16 -109
c3 -5 -1 -11 -9 -14 -9 -4 -12 -1 -8 9 6 16 10 17 17 5z m-14 -306 c0 -12 -19
-12 -23 0 -4 9 -1 12 9 8 7 -3 14 -7 14 -8z m18 -116 c-1 -12 -10 -24 -18 -27
-12 -4 -13 -2 -2 9 14 15 16 33 3 24 -5 -3 -13 -1 -16 5 -4 6 -1 9 7 8 7 -2
12 4 10 12 -3 11 -1 12 8 4 6 -7 10 -22 8 -35z m22 -279 c0 -5 -9 -10 -19 -10
-11 0 -23 5 -26 10 -4 6 5 10 19 10 14 0 26 -4 26 -10z m30 0 c0 -5 -4 -10 -9
-10 -5 0 -8 -11 -7 -24 3 -22 1 -22 -27 -12 -25 9 -26 11 -9 14 12 2 24 12 27
23 7 20 25 27 25 9z m-40 -100 c-20 -13 -43 -13 -35 0 3 6 16 10 28 10 18 0
19 -2 7 -10z m-35 -40 c-3 -5 -12 -10 -18 -10 -7 0 -6 4 3 10 19 12 23 12 15
0z m81 -201 c3 -5 -3 -9 -13 -10 -16 0 -16 -1 2 -9 16 -7 13 -9 -16 -9 -23 -1
-39 4 -42 13 -4 10 1 12 16 9 16 -3 18 -2 8 5 -10 7 -6 10 13 10 15 0 29 -4
32 -9z m-6681 -59 c3 -6 -1 -7 -9 -4 -18 7 -21 14 -7 14 6 0 13 -4 16 -10z
m-25 -45 c0 -7 8 -19 18 -24 9 -6 13 -11 8 -11 -12 0 -46 30 -46 42 0 4 5 8
10 8 6 0 10 -7 10 -15z m6627 -152 c-8 -9 -20 -12 -26 -9 -17 11 -13 26 4 20
8 -4 15 -1 15 6 0 6 5 8 11 4 7 -4 6 -11 -4 -21z m-17 -94 c0 -14 -17 -10 -23
5 -4 10 -1 13 9 9 7 -3 14 -9 14 -14z m-137 -306 c-7 -2 -21 -2 -30 0 -10 3
-4 5 12 5 17 0 24 -2 18 -5z m-17 -45 c3 -4 -1 -5 -10 -4 -8 1 -18 5 -22 8 -3
4 1 5 10 4 8 -1 18 -5 22 -8z m-39 -50 c-3 -7 -5 -2 -5 12 0 14 2 19 5 13 2
-7 2 -19 0 -25z m63 -30 c0 -5 -13 -8 -30 -8 -16 0 -30 3 -30 8 0 4 14 7 30 7
17 0 30 -3 30 -7z m-215 -227 c-6 -5 -25 10 -25 20 0 5 6 4 14 -3 8 -7 12 -15
11 -17z m-4988 -125 c2 -2 0 -7 -6 -11 -6 -3 -11 0 -11 7 0 11 -2 10 -9 0 -7
-11 -9 -11 -14 1 -4 12 0 15 15 12 11 -3 23 -6 25 -9z m4859 -14 c-10 -2 -22
0 -28 6 -6 6 0 7 19 4 21 -5 23 -7 9 -10z m-179 -124 c-3 -8 -6 -5 -6 6 -1 11
2 17 5 13 3 -3 4 -12 1 -19z m-49 -29 c-3 -8 -7 -3 -11 10 -4 17 -3 21 5 13 5
-5 8 -16 6 -23z m-4007 -26 c13 -16 12 -17 -3 -4 -17 13 -22 21 -14 21 2 0 10
-8 17 -17z m3834 -32 c-6 -5 -25 10 -25 20 0 5 6 4 14 -3 8 -7 12 -15 11 -17z
m-3361 -56 c16 -14 26 -25 21 -25 -4 0 -20 11 -37 25 -16 14 -26 25 -21 25 4
0 21 -11 37 -25z m3294 7 c2 -7 -1 -12 -8 -12 -6 0 -9 4 -6 9 4 5 1 12 -4 14
-6 3 -5 4 2 3 6 -1 14 -8 16 -14z m-3468 -13 c0 -11 -4 -17 -10 -14 -5 3 -10
13 -10 21 0 8 5 14 10 14 6 0 10 -9 10 -21z m27 -11 c-3 -7 -5 -2 -5 12 0 14
2 19 5 13 2 -7 2 -19 0 -25z m70 16 c-3 -3 -12 -4 -19 -1 -8 3 -5 6 6 6 11 1
17 -2 13 -5z m178 -32 c-3 -3 -11 0 -18 7 -9 10 -8 11 6 5 10 -3 15 -9 12 -12z
m3110 8 c3 -5 -16 -8 -42 -8 -33 0 -42 3 -28 8 26 10 64 10 70 0z m-182 -14
c9 5 9 4 1 -6 -13 -13 -54 -5 -54 11 0 6 8 5 20 -1 11 -6 26 -8 33 -4z m81
-11 c3 -9 0 -12 -9 -9 -7 3 -16 12 -19 19 -3 9 0 12 9 9 7 -3 16 -12 19 -19z
m-580 -45 c-6 -6 -10 -3 -10 10 0 13 4 16 10 10 7 -7 7 -13 0 -20z m403 4 c-7
-7 -37 7 -37 17 0 6 9 5 21 -1 11 -7 19 -14 16 -16z m-2727 6 c-8 -5 -22 -9
-30 -9 -10 0 -8 3 5 9 27 12 43 12 25 0z m2388 -15 c-3 -3 -9 2 -12 12 -6 14
-5 15 5 6 7 -7 10 -15 7 -18z m99 9 c-3 -4 -1 -16 5 -28 10 -20 9 -20 -7 -4
-15 14 -14 38 2 38 4 0 3 -3 0 -6z m130 -16 c-3 -8 -6 -5 -6 6 -1 11 2 17 5
13 3 -3 4 -12 1 -19z m-340 6 c-3 -3 -12 -4 -19 -1 -8 3 -5 6 6 6 11 1 17 -2
13 -5z m394 -21 c-8 -15 -10 -15 -11 -2 0 17 10 32 18 25 2 -3 -1 -13 -7 -23z
m-2561 7 c0 -5 -4 -10 -10 -10 -5 0 -10 5 -10 10 0 6 5 10 10 10 6 0 10 -4 10
-10z m77 -15 c-4 -8 -11 -15 -17 -15 -6 0 -6 7 2 20 14 22 24 19 15 -5z m1540
3 c-3 -8 -6 -5 -6 6 -1 11 2 17 5 13 3 -3 4 -12 1 -19z m389 2 c0 -12 -4 -16
-9 -11 -5 5 -6 14 -3 20 10 15 12 14 12 -9z m135 -14 c5 3 7 8 5 12 -2 4 14 8
35 10 22 1 39 -2 39 -8 0 -5 -15 -10 -34 -10 -18 0 -39 -7 -46 -15 -17 -20
-32 -15 -37 14 -3 21 -2 21 13 7 8 -9 20 -14 25 -10z m-523 -9 c17 -1 15 -14
-4 -21 -22 -8 -26 -8 -19 3 3 6 -3 15 -12 21 -16 10 -16 11 2 5 11 -4 26 -8
33 -8z m-193 -7 c-3 -5 -12 -10 -18 -10 -7 0 -6 4 3 10 19 12 23 12 15 0z
m624 -11 c-15 -9 -32 -2 -24 11 3 5 13 6 21 3 12 -4 13 -8 3 -14z m-1235 3 c2
-4 -4 -8 -14 -8 -10 0 -16 4 -14 8 3 4 9 8 14 8 5 0 11 -4 14 -8z m516 -32
c-13 -9 -13 -11 0 -21 13 -9 12 -10 -3 -5 -10 3 -23 6 -28 6 -16 0 -10 18 9
23 30 8 37 7 22 -3z m-985 -10 c3 -6 -1 -7 -9 -4 -18 7 -21 14 -7 14 6 0 13
-4 16 -10z m411 -9 c-4 -5 0 -12 6 -14 8 -3 6 -6 -4 -6 -18 -1 -24 10 -11 22
9 10 15 8 9 -2z m137 2 c-7 -2 -19 -2 -25 0 -7 3 -2 5 12 5 14 0 19 -2 13 -5z
m-83 -33 c0 -5 -4 -10 -10 -10 -5 0 -10 5 -10 10 0 6 5 10 10 10 6 0 10 -4 10
-10z"/>
<path d="M8290 7220 c0 -5 5 -10 10 -10 6 0 10 5 10 10 0 6 -4 10 -10 10 -5 0
-10 -4 -10 -10z"/>
<path d="M8715 6750 c3 -5 13 -10 21 -10 8 0 12 5 9 10 -3 6 -13 10 -21 10 -8
0 -12 -4 -9 -10z"/>
<path d="M8775 6660 c3 -5 10 -10 16 -10 5 0 9 5 9 10 0 6 -7 10 -16 10 -8 0
-12 -4 -9 -10z"/>
<path d="M9051 6003 c-1 -6 2 -19 5 -28 6 -14 8 -13 21 5 8 12 12 24 9 27 -3
3 -9 -2 -13 -12 -6 -18 -7 -18 -14 1 -4 10 -8 14 -8 7z"/>
<path d="M9119 5973 c-13 -16 -12 -17 4 -4 16 13 21 21 13 21 -2 0 -10 -8 -17
-17z"/>
<path d="M9052 5921 c-11 -7 -11 -9 1 -14 9 -3 18 1 21 9 6 16 -2 18 -22 5z"/>
<path d="M9118 5813 c-10 -2 -18 -9 -18 -14 0 -6 7 -6 19 0 10 6 22 7 26 3 5
-4 5 -1 1 6 -4 6 -8 11 -9 11 -1 -1 -10 -3 -19 -6z"/>
<path d="M9125 5680 c-3 -5 -2 -10 4 -10 5 0 13 5 16 10 3 6 2 10 -4 10 -5 0
-13 -4 -16 -10z"/>
<path d="M9140 5611 c0 -6 4 -13 10 -16 6 -3 7 1 4 9 -7 18 -14 21 -14 7z"/>
<path d="M9090 5560 c19 -13 30 -13 30 0 0 6 -10 10 -22 10 -19 0 -20 -2 -8
-10z"/>
<path d="M9117 5486 c-9 -23 -1 -36 21 -35 15 1 15 2 0 6 -10 2 -18 8 -18 13
0 5 6 7 14 4 8 -3 17 0 22 7 5 9 2 10 -9 6 -9 -3 -17 -1 -20 6 -2 6 -6 3 -10
-7z"/>
<path d="M9165 5320 c3 -5 8 -10 11 -10 2 0 4 5 4 10 0 6 -5 10 -11 10 -5 0
-7 -4 -4 -10z"/>
<path d="M9125 5140 c3 -5 13 -10 21 -10 8 0 14 5 14 10 0 6 -9 10 -21 10 -11
0 -17 -4 -14 -10z"/>
<path d="M9131 5064 c0 -11 3 -14 6 -6 3 7 2 16 -1 19 -3 4 -6 -2 -5 -13z"/>
<path d="M9096 4993 c-12 -13 -5 -20 19 -20 14 0 25 1 25 3 0 8 -38 23 -44 17z"/>
<path d="M9130 4930 c8 -5 20 -10 25 -10 6 0 3 5 -5 10 -8 5 -19 10 -25 10 -5
0 -3 -5 5 -10z"/>
<path d="M9145 4270 c3 -5 8 -10 11 -10 2 0 4 5 4 10 0 6 -5 10 -11 10 -5 0
-7 -4 -4 -10z"/>
<path d="M9162 4220 c0 -14 2 -19 5 -12 2 6 2 18 0 25 -3 6 -5 1 -5 -13z"/>
<path d="M9143 4073 c-37 -7 -26 -23 15 -22 20 1 29 3 19 6 -9 2 -15 9 -12 14
4 5 5 8 3 8 -2 -1 -13 -4 -25 -6z"/>
<path d="M9120 4036 c0 -2 7 -7 16 -10 8 -3 12 -2 9 4 -6 10 -25 14 -25 6z"/>
<path d="M9110 4012 c0 -5 7 -9 15 -9 8 0 12 4 9 9 -3 4 -9 8 -15 8 -5 0 -9
-4 -9 -8z"/>
<path d="M9138 3910 c-15 -4 -30 -5 -34 -1 -4 3 -4 1 -1 -5 7 -12 54 -7 63 7
3 5 4 9 2 8 -2 0 -15 -4 -30 -9z"/>
<path d="M6868 3870 c-9 -6 -27 -27 -39 -48 -13 -20 -33 -48 -46 -61 -35 -36
-31 -93 10 -149 62 -86 82 -102 127 -102 34 0 48 6 76 34 19 19 34 41 34 50 0
9 4 16 10 16 16 0 40 56 40 92 -1 45 -48 127 -89 155 -36 24 -93 30 -123 13z"/>
<path d="M3420 3778 c-75 -52 -99 -133 -61 -211 45 -92 139 -123 217 -71 103
69 120 158 47 245 -53 63 -141 79 -203 37z"/>
<path d="M9118 3712 c-10 -2 -18 -8 -18 -13 0 -12 17 -12 25 1 3 5 12 7 20 3
8 -3 15 -3 15 0 0 8 -24 14 -42 9z"/>
<path d="M9140 3660 c-13 -9 -13 -10 0 -10 13 0 13 -1 0 -11 -12 -8 -12 -10
-1 -7 8 2 15 12 17 21 3 20 3 19 -16 7z"/>
<path d="M9168 3453 c6 -2 18 -2 25 0 6 3 1 5 -13 5 -14 0 -19 -2 -12 -5z"/>
<path d="M9111 3338 c0 -16 -5 -28 -11 -28 -14 0 -12 -17 3 -22 6 -3 23 -1 37
3 25 9 25 9 -2 5 -16 -2 -28 1 -28 5 0 5 14 9 30 9 17 0 30 4 30 9 0 4 -11 6
-24 4 -19 -4 -25 0 -29 18 -4 22 -4 22 -6 -3z"/>
<path d="M9130 3240 c0 -5 5 -10 11 -10 5 0 7 5 4 10 -3 6 -8 10 -11 10 -2 0
-4 -4 -4 -10z"/>
<path d="M7553 3172 c-82 -65 -101 -84 -58 -57 39 24 145 105 145 111 0 11
-20 -2 -87 -54z"/>
<path d="M9187 3079 c7 -7 15 -10 18 -7 3 3 -2 9 -12 12 -14 6 -15 5 -6 -5z"/>
<path d="M7300 3009 c-52 -27 -84 -47 -70 -43 44 12 195 94 170 93 -3 0 -48
-22 -100 -50z"/>
<path d="M2869 3031 c32 -25 139 -81 155 -81 6 0 17 -5 24 -12 6 -6 22 -13 34
-15 33 -5 22 1 -113 67 -68 33 -113 52 -100 41z"/>
<path d="M9095 3001 c-6 -11 15 -61 27 -61 12 0 10 18 -2 22 -6 2 -12 13 -13
26 -1 24 -3 26 -12 13z"/>
<path d="M9066 2984 c-8 -21 -8 -21 7 -27 10 -4 13 2 9 19 -5 28 -8 30 -16 8z"/>
<path d="M7080 2920 c-58 -22 -100 -39 -95 -39 26 0 174 46 196 61 35 25 16
21 -101 -22z"/>
<path d="M9076 2851 c-17 -6 -17 -8 -4 -14 10 -3 19 0 22 9 3 8 4 14 3 13 -1
0 -11 -4 -21 -8z"/>
<path d="M9036 2628 c3 -5 10 -6 15 -3 13 9 11 12 -6 12 -8 0 -12 -4 -9 -9z"/>
<path d="M8965 2560 c-3 -5 1 -10 9 -10 9 0 16 5 16 10 0 6 -4 10 -9 10 -6 0
-13 -4 -16 -10z"/>
<path d="M8970 2346 c0 -2 8 -10 18 -17 15 -13 16 -12 3 4 -13 16 -21 21 -21
13z"/>
<path d="M8910 2300 c13 -11 25 -20 28 -20 3 0 -3 9 -13 20 -10 11 -23 20 -28
20 -6 0 0 -9 13 -20z"/>
<path d="M8809 2224 c-10 -13 -10 -17 2 -25 21 -13 46 -12 32 2 -6 6 -9 18 -6
25 7 19 -12 18 -28 -2z m18 -9 c0 -8 -4 -12 -9 -9 -5 3 -6 10 -3 15 9 13 12
11 12 -6z"/>
<path d="M8796 2152 c-2 -4 -1 -14 5 -22 7 -12 9 -10 9 8 0 23 -5 28 -14 14z"/>
<path d="M8690 2100 c0 -5 4 -10 9 -10 5 0 11 -12 13 -27 2 -16 7 -27 13 -25
15 3 11 37 -7 55 -19 19 -28 21 -28 7z"/>
<path d="M8763 2061 c-1 -11 4 -22 12 -24 15 -6 14 18 -1 33 -6 6 -10 3 -11
-9z"/>
<path d="M8740 2016 c0 -2 7 -7 16 -10 8 -3 12 -2 9 4 -6 10 -25 14 -25 6z"/>
<path d="M8610 1940 c0 -5 5 -10 10 -10 6 0 10 5 10 10 0 6 -4 10 -10 10 -5 0
-10 -4 -10 -10z"/>
<path d="M8515 1890 c-3 -6 1 -7 9 -4 18 7 21 14 7 14 -6 0 -13 -4 -16 -10z"/>
<path d="M4048 1863 c7 -3 16 -2 19 1 4 3 -2 6 -13 5 -11 0 -14 -3 -6 -6z"/>
<path d="M4070 1839 c0 -5 11 -9 25 -9 14 0 25 2 25 4 0 2 -11 6 -25 8 -14 3
-25 1 -25 -3z"/>
<path d="M8306 1803 c14 -25 14 -26 0 -9 -9 11 -16 18 -17 15 0 -2 -2 -12 -4
-21 -2 -12 2 -15 13 -11 11 5 13 3 7 -8 -8 -12 -6 -12 8 -1 9 8 21 11 26 8 5
-4 13 -2 16 4 4 6 1 9 -6 8 -7 -2 -17 6 -23 17 -7 11 -17 21 -24 23 -9 1 -8
-6 4 -25z"/>
<path d="M8390 1806 c0 -2 8 -10 18 -17 15 -13 16 -12 3 4 -13 16 -21 21 -21
13z"/>
<path d="M4390 1781 c0 -6 4 -13 10 -16 6 -3 7 1 4 9 -7 18 -14 21 -14 7z"/>
<path d="M8373 1775 c0 -8 4 -12 9 -9 5 3 6 10 3 15 -9 13 -12 11 -12 -6z"/>
<path d="M8195 1770 c-3 -5 -2 -10 4 -10 5 0 12 -10 14 -22 3 -14 4 -10 4 10
-1 32 -10 41 -22 22z"/>
<path d="M4448 1753 c6 -2 18 -2 25 0 6 3 1 5 -13 5 -14 0 -19 -2 -12 -5z"/>
<path d="M8170 1741 c11 -22 30 -29 30 -11 0 5 -9 14 -21 20 -19 11 -20 10 -9
-9z"/>
<path d="M4590 1741 c0 -5 -8 -12 -17 -14 -10 -3 -6 -4 10 -4 24 1 41 27 17
27 -5 0 -10 -4 -10 -9z"/>
<path d="M8265 1730 c-3 -5 -1 -10 4 -10 6 0 11 5 11 10 0 6 -2 10 -4 10 -3 0
-8 -4 -11 -10z"/>
<path d="M4726 1695 c10 -8 23 -15 28 -15 6 0 1 7 -10 15 -10 8 -23 15 -28 15
-6 0 -1 -7 10 -15z"/>
<path d="M8179 1708 c-5 -18 -6 -38 -1 -34 7 8 12 36 6 36 -2 0 -4 -1 -5 -2z"/>
<path d="M8070 1684 l-35 -13 41 2 c25 1 41 7 41 15 0 14 -1 14 -47 -4z"/>
<path d="M4865 1650 c-3 -5 -1 -10 4 -10 6 0 11 5 11 10 0 6 -2 10 -4 10 -3 0
-8 -4 -11 -10z"/>
<path d="M7789 1613 c-13 -17 -13 -17 6 -3 11 8 22 16 24 17 2 2 0 3 -6 3 -6
0 -17 -8 -24 -17z"/>
<path d="M7586 1586 c3 -9 13 -16 22 -16 8 0 13 1 11 3 -2 1 -12 9 -22 16 -15
12 -17 12 -11 -3z"/>
<path d="M7764 1586 c11 -9 24 -16 30 -16 12 0 7 5 -24 19 -24 11 -24 11 -6
-3z"/>
<path d="M7720 1586 c0 -2 8 -10 18 -17 15 -13 16 -12 3 4 -13 16 -21 21 -21
13z"/>
<path d="M7090 1561 c0 -5 7 -12 16 -15 14 -5 15 -4 4 9 -14 17 -20 19 -20 6z"/>
<path d="M7216 1552 c-2 -4 -1 -14 4 -22 7 -11 12 -12 21 -3 6 6 8 16 5 22 -8
13 -23 14 -30 3z m24 -12 c0 -5 -2 -10 -4 -10 -3 0 -8 5 -11 10 -3 6 -1 10 4
10 6 0 11 -4 11 -10z"/>
<path d="M7290 1540 c0 -5 5 -10 10 -10 6 0 10 5 10 10 0 6 -4 10 -10 10 -5 0
-10 -4 -10 -10z"/>
<path d="M6700 1530 c-9 -6 -10 -10 -3 -10 6 0 15 5 18 10 8 12 4 12 -15 0z"/>
<path d="M7055 1530 l-30 -8 33 -1 c17 0 32 4 32 9 0 6 -1 9 -2 9 -2 -1 -16
-5 -33 -9z"/>
<path d="M6956 1515 c4 -8 8 -15 10 -15 2 0 4 7 4 15 0 8 -4 15 -10 15 -5 0
-7 -7 -4 -15z"/>
<path d="M7123 1523 c9 -2 23 -2 30 0 6 3 -1 5 -18 5 -16 0 -22 -2 -12 -5z"/>
<path d="M3995 1508 c-48 -27 -115 -91 -133 -128 -10 -22 -21 -37 -24 -35 -16
16 15 -104 36 -139 71 -122 196 -157 323 -92 86 44 133 113 133 199 0 73 -66
158 -149 193 -40 17 -158 18 -186 2z"/>
<path d="M4672 1505 c-47 -20 -93 -60 -119 -104 -35 -56 -32 -143 6 -204 42
-65 98 -100 172 -105 78 -6 136 17 191 74 54 55 67 85 68 150 0 52 -31 116
-76 156 -51 45 -176 61 -242 33z"/>
<path d="M6537 1496 c-4 -10 -1 -13 8 -9 8 3 12 9 9 14 -7 12 -11 11 -17 -5z"/>
<path d="M6993 1497 c-3 -4 -2 -11 1 -14 3 -4 6 -1 6 5 0 6 6 9 14 6 8 -3 16
-2 19 3 3 5 -3 9 -14 9 -11 0 -23 -4 -26 -9z"/>
<path d="M7166 1492 c-2 -4 4 -8 14 -8 10 0 16 4 14 8 -3 4 -9 8 -14 8 -5 0
-11 -4 -14 -8z"/>
<path d="M7088 1483 c6 -2 18 -2 25 0 6 3 1 5 -13 5 -14 0 -19 -2 -12 -5z"/>
<path d="M5850 1460 c0 -5 5 -10 11 -10 5 0 7 5 4 10 -3 6 -8 10 -11 10 -2 0
-4 -4 -4 -10z"/>
<path d="M6458 1463 c7 -3 16 -2 19 1 4 3 -2 6 -13 5 -11 0 -14 -3 -6 -6z"/>
<path d="M6536 1462 c-3 -5 1 -9 9 -9 8 0 12 4 9 9 -3 4 -7 8 -9 8 -2 0 -6 -4
-9 -8z"/>
<path d="M6970 1456 c4 -4 16 -4 26 2 16 9 14 10 -8 9 -15 -1 -23 -6 -18 -11z"/>
<path d="M5805 1450 c-3 -6 1 -7 9 -4 18 7 21 14 7 14 -6 0 -13 -4 -16 -10z"/>
<path d="M5870 1412 c-23 -22 -23 -24 -3 -13 12 6 25 16 28 22 13 20 0 15 -25
-9z"/>
<path d="M6381 1384 c0 -11 3 -14 6 -6 3 7 2 16 -1 19 -3 4 -6 -2 -5 -13z"/>
<path d="M6392 1340 c0 -14 2 -19 5 -12 2 6 2 18 0 25 -3 6 -5 1 -5 -13z"/>
<path d="M6334 1166 c-23 -25 -59 -54 -80 -65 -22 -11 -32 -20 -24 -21 27 0
120 73 141 113 14 26 8 21 -37 -27z"/>
<path d="M5290 1137 c14 -16 34 -33 45 -39 21 -11 20 -10 -35 37 l-35 30 25
-28z"/>
<path d="M5599 1133 c-8 -9 -32 -24 -54 -34 -22 -10 -34 -19 -27 -19 7 0 23 5
35 11 31 16 81 59 69 59 -5 0 -16 -7 -23 -17z"/>
<path d="M5423 1073 c15 -2 39 -2 55 0 15 2 2 4 -28 4 -30 0 -43 -2 -27 -4z"/>
<path d="M6188 1073 c7 -3 16 -2 19 1 4 3 -2 6 -13 5 -11 0 -14 -3 -6 -6z"/>
<path d="M6128 1063 c6 -2 18 -2 25 0 6 3 1 5 -13 5 -14 0 -19 -2 -12 -5z"/>
</g>
</svg>
